<?xml version="1.0" encoding="UTF-8" standalone="no"?>
<!-- Generator: Adobe Illustrator 22.0.1, SVG Export Plug-In . SVG Version: 6.00 Build 0)  -->

<svg
   version="1.1"
   id="Layer_1"
   x="0px"
   y="0px"
   viewBox="0 0 91.3 93.413391"
   enable-background="new 0 0 130.9 31.5"
   xml:space="preserve"
   sodipodi:docname="Logo_of_UNICEF.svg"
   width="91.299995"
   height="93.413391"
   inkscape:version="1.1.2 (0a00cf5339, 2022-02-04)"
   xmlns:inkscape="http://www.inkscape.org/namespaces/inkscape"
   xmlns:sodipodi="http://sodipodi.sourceforge.net/DTD/sodipodi-0.dtd"
   xmlns="http://www.w3.org/2000/svg"
   xmlns:svg="http://www.w3.org/2000/svg"><defs
   id="defs63" /><sodipodi:namedview
   id="namedview61"
   pagecolor="#ffffff"
   bordercolor="#666666"
   borderopacity="1.0"
   inkscape:pageshadow="2"
   inkscape:pageopacity="0.0"
   inkscape:pagecheckerboard="0"
   showgrid="false"
   fit-margin-top="0"
   fit-margin-left="0"
   fit-margin-right="0"
   fit-margin-bottom="0"
   inkscape:zoom="2.0874715"
   inkscape:cx="102.7559"
   inkscape:cy="16.766696"
   inkscape:window-width="1306"
   inkscape:window-height="699"
   inkscape:window-x="60"
   inkscape:window-y="32"
   inkscape:window-maximized="1"
   inkscape:current-layer="Layer_1" />






















<g
   id="g88"
   transform="matrix(2.5118018,0,0,2.5118018,-237.55565,0)"><path
     fill="#009edb"
     d="m 112.7,0 c -6.8,0 -12.4,5.5 -12.4,12.4 0,6.8 5.5,12.4 12.4,12.4 6.8,0 12.4,-5.5 12.4,-12.4 C 125.1,5.5 119.5,0 112.7,0 m 9.6,5.5 c -0.6,0.4 -1.3,0.8 -2,1.2 -0.4,-0.8 -0.9,-1.6 -1.5,-2.3 0.5,-0.3 1,-0.7 1.4,-1 0.9,0.5 1.6,1.3 2.1,2.1 m -5.2,-4.1 c 1,0.4 1.9,0.9 2.8,1.6 -0.4,0.4 -0.9,0.7 -1.4,1 -0.6,-0.7 -1.3,-1.3 -2,-1.9 0.2,-0.3 0.4,-0.5 0.6,-0.7 m 1,2.8 c -0.7,0.4 -1.4,0.6 -2.1,0.9 -0.3,-0.7 -0.6,-1.4 -1,-2 0.4,-0.2 0.8,-0.4 1.1,-0.7 0.7,0.5 1.4,1.1 2,1.8 m -1.5,-3 c -0.2,0.2 -0.4,0.4 -0.5,0.6 -0.7,-0.4 -1.3,-0.8 -2.1,-1.1 0.9,0 1.8,0.2 2.6,0.5 m -0.9,0.9 c -0.3,0.2 -0.6,0.4 -0.9,0.5 -0.4,-0.6 -0.8,-1.1 -1.2,-1.7 0.7,0.3 1.4,0.7 2.1,1.2 M 112.9,1 c 0.5,0.5 0.9,1.1 1.3,1.8 -0.4,0.1 -0.8,0.2 -1.3,0.2 z m 0,2.5 c 0.5,0 1.1,-0.1 1.6,-0.3 0.4,0.6 0.7,1.3 1,2 -0.8,0.2 -1.7,0.3 -2.6,0.4 z M 112.4,1 V 3 C 112,3 111.6,2.9 111.1,2.8 111.6,2.2 112,1.6 112.4,1 m -1.7,1.6 c -0.3,-0.1 -0.7,-0.3 -0.9,-0.5 0.7,-0.4 1.4,-0.8 2.1,-1.1 -0.5,0.5 -0.9,1 -1.2,1.6 m 0.7,-2 c -0.7,0.3 -1.4,0.7 -2.1,1.1 -0.2,-0.2 -0.4,-0.4 -0.5,-0.6 0.8,-0.2 1.7,-0.4 2.6,-0.5 m 8.5,21.2 c -1.6,-0.9 -1.7,-2.2 -1.6,-2.6 0.1,-0.5 0.4,-0.3 0.6,-0.3 1.1,0 2.2,-0.3 3.6,-1.8 1.6,-1.6 2.1,-5.2 -0.4,-7.5 -2.6,-2.5 -5.4,-2.1 -7.2,0.2 -0.4,0.5 -1.3,0.8 -2,0.8 -1.2,0 -0.4,0.9 -0.4,1.1 0,0.2 -0.2,0.3 -0.3,0.3 -0.4,-0.1 -0.2,0.5 -0.2,0.6 0,0.1 -0.2,0.3 -0.2,0.3 -0.5,0 -0.4,0.4 -0.3,0.6 0,0.1 0,0.3 -0.2,0.4 -0.2,0.1 -0.3,0.5 -0.3,0.8 0,0.5 0.5,0.9 1.3,1.5 0.8,0.6 0.9,1.2 0.9,1.6 0,0.4 0.1,1.1 0.2,1.5 0.2,0.5 0.2,1.5 -0.9,1.5 -1.4,0.1 -3.8,1.1 -4,1.2 -0.8,0.3 -1.8,0.4 -2.6,0.2 -0.4,-0.3 -0.8,-0.6 -1.2,-1 -0.2,-0.5 0.1,-1.1 0.4,-1.5 0.5,0.5 1.1,0.4 1.5,0.4 0.4,0 2.2,-0.3 2.5,-0.4 0.3,-0.1 0.4,-0.1 0.5,0 0.7,0.3 1.7,0.3 2.1,-1 0.4,-1.4 -0.5,-1 -0.7,-0.9 -0.1,0.1 -0.3,0 -0.2,-0.1 0.2,-0.3 -0.1,-0.3 -0.2,-0.3 -0.4,0 -0.9,0.4 -1,0.5 -0.2,0.1 -0.3,0.1 -0.4,0.1 -0.5,-0.3 -2,0.1 -2.5,-0.7 0,-0.2 -0.4,-3.5 -0.6,-4.1 0,-0.1 -0.1,-0.3 0.1,-0.5 0.4,-0.6 1.4,0 2,0 0.7,0 0.8,-0.3 1,-0.5 0.2,-0.2 0.3,-0.1 0.4,-0.2 0.1,-0.1 0,-0.2 0,-0.3 0,-0.1 0.1,0 0.2,-0.1 0.1,-0.1 0,-0.3 0,-0.4 0.2,-0.3 0.6,-0.1 0.4,-0.7 -0.1,-0.4 0.1,-0.8 0.3,-1 0.3,-0.4 1.6,-2.2 -0.6,-4.1 -2.1,-1.8 -4.3,-1.6 -5.7,-0.1 -1.4,1.5 -0.7,3.7 -0.6,4.3 0.1,0.6 -0.3,1.1 -0.8,1.3 -0.4,0.2 -1.3,0.8 -1.9,1.3 0.1,-4.8 3,-9 7.4,-10.7 0.2,0.2 0.4,0.5 0.6,0.7 -0.5,0.4 -1.6,1.3 -1.6,1.3 0,0 0.1,0 0.3,0.1 0.1,0 0.3,0.1 0.3,0.1 0,0 0.9,-0.8 1.4,-1.1 0.3,0.3 0.7,0.5 1.1,0.7 -0.2,0.4 -0.8,1.4 -0.8,1.4 0,0 0.1,0.1 0.2,0.1 0.1,0.1 0.2,0.1 0.2,0.1 0,0 0.6,-1.1 0.8,-1.5 0.5,0.2 1,0.3 1.5,0.3 v 2 c -0.3,0 -1,0 -1.3,-0.1 h -0.2 l 0.1,0.2 c 0.1,0.1 0.1,0.2 0.2,0.3 v 0 0 c 0.2,0 0.9,0 1.2,0 v 3.7 h 0.5 V 8.9 c 0.8,0 1.4,-0.1 2.1,-0.2 v 0 l 0.7,-0.6 h -0.4 c -0.8,0.1 -1.5,0.2 -2.1,0.2 0,0 -0.2,0 -0.3,0 V 6 c 0.9,0 1.9,-0.1 2.8,-0.4 0.2,0.6 0.7,2.1 0.7,2.1 l 0.5,-0.2 c 0,0 -0.5,-1.5 -0.7,-2.1 0.8,-0.2 1.5,-0.6 2.2,-0.9 0.6,0.7 1.1,1.5 1.5,2.3 -0.4,0.2 -1,0.4 -1,0.4 0.5,0.1 0.9,0.2 0.9,0.2 0,0 0.2,-0.1 0.3,-0.1 0,0.1 0.1,0.3 0.1,0.3 l 0.7,0.3 -0.1,-0.2 c 0,0 -0.2,-0.5 -0.3,-0.6 0.7,-0.3 1.4,-0.7 2.1,-1.2 1.3,1.9 1.9,4.2 1.9,6.5 0.2,3.8 -1.7,7.2 -4.5,9.4"
     id="path2" /><path
     fill="#009edb"
     d="M 99.2,3.3 99,3.5 c -0.7,0.6 -2.4,2.3 -2.1,4.2 0,0 0,0.1 0,0.1 0,0 0.1,0.4 0.1,0.4 L 97.2,8 c 1,-0.9 1.8,-2.5 2.1,-4.3 l 0.1,-0.5 z"
     id="path4" /><path
     fill="#009edb"
     d="m 95.8,6.5 -0.1,0.2 c -0.1,0.3 -0.3,1 -0.4,1.8 -0.2,1.2 -0.1,3 0.9,4.3 0,0 0.1,0.2 0.1,0.2 l 0.1,0.2 0.2,-0.8 C 96.8,11 96.5,8.1 96,6.8 L 95.8,6.4 Z"
     id="path6" /><path
     fill="#009edb"
     d="m 94.6,11.5 v 0.2 c -0.1,1.2 0,4.3 2.5,6 0,0 0.3,0.2 0.3,0.2 V 17.5 C 97.4,16.3 96,12.8 95,11.6 l -0.3,-0.4 z"
     id="path8" /><path
     fill="#009edb"
     d="m 95,17 v 0.2 c 0.4,1.8 2,4.6 4.6,5.5 l 0.4,0.1 -0.1,-0.4 C 99.4,21.1 96.9,18 95.3,17 L 95,16.8 Z"
     id="path10" /><path
     fill="#009edb"
     d="M 100.3,6 100,6.1 c -1.9,1.2 -2.8,2.6 -2.8,4.4 v 0.4 l 0.3,-0.2 c 1,-0.9 2.4,-3.1 2.7,-4.3 l 0.1,-0.5 z"
     id="path12" /><path
     fill="#009edb"
     d="M 99.1,9.8 99,10 c -0.5,0.5 -2.1,2.2 -2,4.3 0,0.3 0.1,0.7 0.2,1 l 0.1,0.3 0.2,-0.3 c 0.8,-1.1 1.8,-3.9 1.7,-5.2 V 9.7 Z"
     id="path14" /><path
     fill="#009edb"
     d="m 99.2,13.5 -0.1,0.2 c -0.8,1.2 -1.2,2.4 -1.2,3.6 0,0.8 0.3,1.6 0.8,2.4 L 98.9,20 99,19.7 c 0.3,-0.7 0.6,-2.8 0.6,-4.5 0,-0.6 -0.1,-1.1 -0.2,-1.4 l -0.1,-0.4 z"
     id="path16" /><path
     fill="#009edb"
     d="m 100.1,17.4 -0.1,0.2 c -0.2,0.8 -0.4,1.5 -0.3,2.3 0,1.6 0.8,2.9 2.2,3.8 l 0.2,0.1 0.1,-0.3 c 0,0 0,-0.3 0,-0.3 0,-1.3 -1,-4.7 -1.8,-5.7 l -0.2,-0.3 z"
     id="path18" /><path
     fill="#009edb"
     d="m 97.4,22.6 0.1,0.2 c 1,1.7 2.8,4 6.1,3.4 h 0.3 L 103.7,26 c -0.6,-0.9 -4.6,-3.2 -6,-3.4 l -0.4,-0.1 z"
     id="path20" /><path
     fill="#009edb"
     d="m 102.3,27 v 0 l -0.5,0.1 0.5,0.2 c 2.1,0.9 4.7,1.1 6.3,0.6 0.6,-0.2 0.9,-0.5 1.3,-0.9 2.7,0.3 5.2,2.5 6.7,4.3 0,0 0.1,0.1 0.1,0.1 h 0.1 c 0.2,-0.1 0.4,-0.3 0.5,-0.4 l 0.1,-0.1 -0.1,-0.1 c -1.5,-2 -3.9,-3.2 -4,-3.3 -2.2,-1 -6,-1.8 -11,-0.5"
     id="path22" /><path
     fill="#009edb"
     d="m 102.4,21.4 v 0.2 c 0.3,2 1.1,4.6 4.5,4.3 h 0.2 L 107,25.7 c -0.2,-0.9 -3.3,-3.5 -4.4,-4.2 l -0.3,-0.2 z"
     id="path24" /><path
     fill="#009edb"
     d="m 126,3.1 0.1,0.5 c 0.3,1.8 1.1,3.4 2.1,4.3 l 0.2,0.2 c 0,0 0.1,-0.4 0.1,-0.4 0,0 0,-0.1 0,-0.1 0.3,-1.9 -1.4,-3.6 -2.1,-4.2 l -0.2,-0.2 z"
     id="path26" /><path
     fill="#009edb"
     d="m 129.5,6.3 -0.2,0.4 c -0.5,1.3 -0.7,4.2 -0.6,5.6 l 0.2,0.8 0.1,-0.1 c 0,0 0.1,-0.2 0.1,-0.2 1.1,-1.3 1.1,-3 0.9,-4.3 -0.1,-0.9 -0.3,-1.5 -0.4,-1.8 l -0.1,-0.2 z"
     id="path28" /><path
     fill="#009edb"
     d="m 130.8,11.3 -0.3,0.4 c -1,1.3 -2.4,4.7 -2.4,5.9 V 18 c 0,0 0.3,-0.2 0.3,-0.2 2.5,-1.6 2.6,-4.7 2.5,-6 v -0.2 z"
     id="path30" /><path
     fill="#009edb"
     d="M 130.4,16.8 130,17 c -1.6,1 -4.1,4.1 -4.6,5.4 l -0.1,0.4 0.4,-0.1 c 2.6,-0.8 4.3,-3.7 4.6,-5.5 V 17 Z"
     id="path32" /><path
     fill="#009edb"
     d="m 125.1,5.8 0.1,0.5 c 0.4,1.3 1.6,3.5 2.7,4.4 l 0.3,0.2 v -0.4 c 0.1,-1.8 -0.8,-3.2 -2.7,-4.4 L 125.3,6 Z"
     id="path34" /><path
     fill="#009edb"
     d="m 126.2,9.7 v 0.4 c -0.1,1.3 1,4.2 1.7,5.2 l 0.2,0.3 0.1,-0.3 c 0.1,-0.4 0.2,-0.7 0.2,-1 0.1,-2.1 -1.5,-3.8 -2,-4.3 l -0.1,-0.1 z"
     id="path36" /><path
     fill="#009edb"
     d="m 126.1,13.3 -0.1,0.4 c -0.1,0.3 -0.2,0.8 -0.2,1.4 0,1.7 0.2,3.8 0.6,4.5 l 0.1,0.3 0.2,-0.3 c 0.5,-0.7 0.8,-1.5 0.8,-2.4 0,-1.1 -0.4,-2.4 -1.2,-3.6 l -0.1,-0.2 z"
     id="path38" /><path
     fill="#009edb"
     d="m 125.2,17.2 -0.2,0.3 c -0.8,1 -1.8,4.4 -1.8,5.7 0,0 0,0.2 0,0.3 l 0.1,0.3 c 0,0 0.2,-0.1 0.2,-0.1 1.4,-0.9 2.1,-2.2 2.2,-3.8 0,-0.7 -0.1,-1.5 -0.3,-2.3 l -0.1,-0.2 z"
     id="path40" /><path
     fill="#009edb"
     d="m 128.1,22.4 c 0,0 -0.4,0.1 -0.4,0.1 -1.4,0.2 -5.4,2.5 -6,3.4 l -0.2,0.2 h 0.3 c 3.3,0.6 5.1,-1.7 6.1,-3.4 l 0.1,-0.2 z"
     id="path42" /><path
     fill="#009edb"
     d="m 112.2,27.5 c -0.1,0 -2.5,1.3 -4,3.3 l -0.1,0.1 0.1,0.1 c 0.1,0.1 0.4,0.3 0.5,0.4 h 0.1 c 0,0 0.1,-0.1 0.1,-0.1 1.5,-1.8 4,-4.1 6.7,-4.3 0.4,0.4 0.8,0.7 1.3,0.9 1.5,0.5 4.2,0.3 6.3,-0.6 l 0.5,-0.2 -0.5,-0.1 c -5.1,-1.3 -8.9,-0.5 -11,0.5"
     id="path44" /><path
     fill="#009edb"
     d="m 123,21.2 -0.3,0.2 c -1.1,0.7 -4.1,3.3 -4.4,4.2 l -0.1,0.2 h 0.2 c 3.3,0.3 4.1,-2.3 4.5,-4.3 v -0.2 z"
     id="path46" /></g>





<g
   id="g96"
   transform="matrix(0.54788398,0,0,0.54788398,20.639095,77.743906)"><path
     fill="#009edb"
     d="m 38.6,1.2 h 4.2 V 5 H 38.6 Z M 39,9.4 h 3.5 V 28 H 39 Z"
     id="path48" /><path
     fill="#009edb"
     d="M 12.5,9.4 H 16 V 28 H 12.6 V 25.3 H 12.5 C 11.1,27.6 8.7,28.6 6.1,28.6 2.2,28.6 0,25.6 0,21.9 V 9.4 h 3.5 v 11 c 0,3.2 0.7,5.6 4.1,5.6 1.4,0 3.4,-0.7 4.1,-2.7 0.7,-1.7 0.7,-3.9 0.7,-4.4 V 9.4 Z"
     id="path50" /><path
     fill="#009edb"
     d="m 23,12.1 v 0 c 1.3,-2.3 3.8,-3.3 5.7,-3.3 1.3,0 7,0.3 7,6.3 V 27.9 H 32.2 V 16.2 c 0,-3.1 -1.3,-4.7 -4.3,-4.7 0,0 -1.9,-0.1 -3.4,1.4 -0.5,0.5 -1.5,1.3 -1.5,5 V 28 H 19.5 V 9.4 H 23 Z"
     id="path52" /><path
     fill="#009edb"
     d="M 57.2,15.3 C 57,13 55.9,11.4 53.4,11.4 c -3.3,0 -4.6,2.9 -4.6,7.2 0,4.3 1.3,7.2 4.6,7.2 2.3,0 3.7,-1.5 3.9,-4.2 h 3.5 c -0.3,4.2 -3.4,6.7 -7.5,6.7 -5.9,0 -8.3,-4.2 -8.3,-9.6 0,-5.4 2.7,-9.9 8.6,-9.9 3.9,0 6.8,2.5 7,6.5 z"
     id="path54" /><path
     fill="#009edb"
     d="m 66,19.3 c -0.3,3.2 1.1,6.6 4.6,6.6 2.7,0 4.1,-1.1 4.5,-3.8 h 3.7 c -0.6,4.2 -3.8,6.3 -8.2,6.3 -5.9,0 -8.3,-4.2 -8.3,-9.6 0,-5.4 2.7,-9.9 8.6,-9.9 5.5,0.1 8.1,3.6 8.1,8.7 v 1.7 z m 9.4,-2.4 c 0.1,-3.1 -1.3,-5.5 -4.7,-5.5 -2.9,0 -4.6,2.5 -4.6,5.5 z"
     id="path56" /><path
     fill="#009edb"
     d="m 83,27.8 v -16 H 79.8 V 9.4 H 83 v -4 c 0.1,-4 3.2,-5.1 5.8,-5.1 0.8,0 1.7,0.2 2.5,0.4 v 2.9 c -0.6,0 -1.2,-0.1 -1.8,-0.1 -2,0 -3.1,0.5 -3,2.5 v 3.4 h 4.3 v 2.4 h -4.3 v 16 z"
     id="path58" /></g>
</svg>
